{"title":"Fast and furious 7 2015 Cam.iHD.Coversion.BX.H.264","uid":11866069,"size":961308006,"categoryP":"video","categoryS":"movies","magnet":"?xt=urn:btih:90029fb5d2b0fe4f1d913b425acb9c595c3c7801&amp;dn=Fast+and+furious+7+2015+Cam.iHD.Coversion.BX.H.264&amp;tr=udp%3A%2F%2Ftracker.openbittorrent.com%3A80&amp;tr=udp%3A%2F%2Fopen.demonii.com%3A1337&amp;tr=udp%3A%2F%2Ftracker.coppersurfer.tk%3A6969&amp;tr=udp%3A%2F%2Fexodus.desync.com%3A6969","seeders":1,"leechers":0,"uploader":"PurePowerPunk","files":1,"time":1430351962,"description":"Format                                   : MPEG-4\nFormat profile                           : Base Media / Version 2\nCodec ID                                 : mp42\nFile size                                : 917 MiB\nDuration                                 : 2h 11mn\nOverall bit rate mode                    : Variable\nOverall bit rate                         : 978 Kbps\n\n\n\nVideo\nID                                       : 1\nFormat                                   : AVC\nFormat/Info                              : Advanced Video Codec\nFormat profile                           : &lt;a class=&quot;__cf_email__&quot; href=&quot;/cdn-cgi/l/email-protection&quot; data-cfemail=&quot;a4eccdc3cce4e8918a95&quot;&gt;[email&amp;#160;protected]&lt;/a&gt;&lt;script cf-hash='f9e31' type=&quot;text/javascript&quot;&gt;\n/* &lt;![CDATA[ */!function(){try{var t=&quot;currentScript&quot;in document?document.currentScript:function(){for(var t=document.getElementsByTagName(&quot;script&quot;),e=t.length;e--;)if(t[e].getAttribute(&quot;cf-hash&quot;))return t[e]}();if(t&amp;&amp;t.previousSibling){var e,r,n,i,c=t.previousSibling,a=c.getAttribute(&quot;data-cfemail&quot;);if(a){for(e=&quot;&quot;,r=parseInt(a.substr(0,2),16),n=2;a.length-n;n+=2)i=parseInt(a.substr(n,2),16)^r,e+=String.fromCharCode(i);e=document.createTextNode(e),c.parentNode.replaceChild(e,c)}}}catch(u){}}();/* ]]&gt; */&lt;/script&gt;\nFormat settings, CABAC                   : Yes\nFormat settings, ReFrames                : 3 frames\nFormat settings, GOP                     : M=3, N=33\nCodec ID                                 : avc1\nCodec ID/Info                            : Advanced Video Coding\nDuration                                 : 2h 11mn\nBit rate                                 : 845 Kbps\nWidth                                    : 720 pixels\nHeight                                   : 360 pixels\nDisplay aspect ratio                     : 2.000\nFrame rate mode                          : Variable\nFrame rate                               : 25.000 fps\nMinimum frame rate                       : 25.000 fps\nMaximum frame rate                       : 25.025 fps\nStandard                                 : PAL\nColor space                              : YUV\nChroma subsampling                       : 4:2:0\nBit depth                                : 8 bits\nScan type                                : Progressive\nBits/(Pixel*Frame)                       : 0.130\nStream size                              : 792 MiB (86%)\nLanguage                                 : English\nEncoded date                             : UTC 2015-04-29 21:10:12\nTagged date                              : UTC 2015-04-29 21:10:12\nColor range                              : Limited\nColor primaries                          : BT.601 PAL\nTransfer characteristics                 : BT.470 System B, BT.470 System G\nMatrix coefficients                      : BT.601\nmdhd_Duration                            : 7860921\n\n\n\nAudio\nID                                       : 2\nFormat                                   : AAC\nFormat/Info                              : Advanced Audio Codec\nFormat profile                           : LC\nCodec ID                                 : 40\nDuration                                 : 2h 11mn\nSource duration                          : 2h 11mn\nBit rate mode                            : Variable\nBit rate                                 : 125 Kbps\nMaximum bit rate                         : 215 Kbps\nChannel(s)                               : 2 channels\nChannel positions                        : Front: L R\nSampling rate                            : 48.0 KHz\nCompression mode                         : Lossy\nStream size                              : 117 MiB (13%)\nSource stream size                       : 117 MiB (13%)\nLanguage                                 : English\n\n\nScreens\n &lt;a href=&quot;\nhttp://postimg.org/image/d4uy3dghl/&quot; rel=&quot;nofollow&quot; target=&quot;_NEW&quot;&gt;\nhttp://postimg.org/image/d4uy3dghl/&lt;/a&gt;\n &lt;a href=&quot;\nhttp://postimg.org/image/nwodu7rwd/&quot; rel=&quot;nofollow&quot; target=&quot;_NEW&quot;&gt;\nhttp://postimg.org/image/nwodu7rwd/&lt;/a&gt;\n &lt;a href=&quot;\nhttp://postimg.org/image/ju2jkvyqp/&quot; rel=&quot;nofollow&quot; target=&quot;_NEW&quot;&gt;\nhttp://postimg.org/image/ju2jkvyqp/&lt;/a&gt;\n &lt;a href=&quot;\nhttp://postimg.org/image/8etrjqx05/&quot; rel=&quot;nofollow&quot; target=&quot;_NEW&quot;&gt;\nhttp://postimg.org/image/8etrjqx05/&lt;/a&gt;\n &lt;a href=&quot;\nhttp://postimg.org/image/77xwejaaj/&quot; rel=&quot;nofollow&quot; target=&quot;_NEW&quot;&gt;\nhttp://postimg.org/image/77xwejaaj/&lt;/a&gt;\n &lt;a href=&quot;\nhttp://postimg.org/image/gr185i871/&quot; rel=&quot;nofollow&quot; target=&quot;_NEW&quot;&gt;\nhttp://postimg.org/image/gr185i871/&lt;/a&gt;","torrent":{"xt":"urn:btih:90029fb5d2b0fe4f1d913b425acb9c595c3c7801","amp;dn":"Fast+and+furious+7+2015+Cam.iHD.Coversion.BX.H.264","amp;tr":["udp%3A%2F%2Ftracker.openbittorrent.com%3A80","udp%3A%2F%2Fopen.demonii.com%3A1337","udp%3A%2F%2Ftracker.coppersurfer.tk%3A6969","udp%3A%2F%2Fexodus.desync.com%3A6969"],"infoHash":"90029fb5d2b0fe4f1d913b425acb9c595c3c7801","infoHashBuffer":{"type":"Buffer","data":[144,2,159,181,210,176,254,79,29,145,59,66,90,203,156,89,92,60,120,1]},"announce":[],"urlList":[]}}